<?xml version="1.0" standalone="no"?>
<!DOCTYPE svg PUBLIC "-//W3C//DTD SVG 20010904//EN"
 "http://www.w3.org/TR/2001/REC-SVG-20010904/DTD/svg10.dtd">
<svg version="1.0" xmlns="http://www.w3.org/2000/svg"
 width="600.000000pt" height="800.000000pt" viewBox="0 0 867.000000 997.000000"
 preserveAspectRatio="xMidYMid meet">
<metadata>
Created by potrace 1.16, written by Peter Selinger 2001-2019
</metadata>
<g transform="translate(0.000000,997.000000) scale(0.100000,-0.100000)"
fill="#000000" stroke="none">
<path d="M998 9960 c-50 -15 -93 -49 -117 -91 -21 -37 -23 -50 -18 -118 9
-134 61 -233 232 -445 98 -123 170 -224 180 -255 6 -21 25 -29 25 -11 0 16
101 159 195 275 173 215 224 319 225 456 0 63 -4 82 -23 110 -73 108 -262 114
-350 9 -14 -16 -31 -46 -38 -65 -16 -43 -25 -44 -32 -5 -4 16 -25 50 -47 74
-60 65 -151 91 -232 66z"/>
<path d="M2450 9961 c-69 -21 -130 -72 -149 -124 -18 -47 -13 -91 18 -151 22
-44 25 -56 12 -51 -82 34 -142 24 -191 -32 -45 -51 -62 -98 -63 -168 -1 -147
91 -227 228 -196 68 15 126 53 159 104 l26 41 0 -32 c0 -94 -85 -200 -250
-314 -24 -16 -11 -17 270 -17 l295 -1 -64 42 c-128 83 -209 190 -218 287 l-5
46 19 -30 c49 -76 147 -134 226 -135 58 0 98 19 130 62 70 94 59 226 -26 316
-50 52 -108 60 -191 26 -18 -7 -17 -4 5 27 20 28 24 46 24 106 0 64 -3 75 -31
110 -54 69 -152 105 -224 84z"/>
<path d="M5846 9956 c-94 -35 -132 -89 -130 -186 3 -136 55 -240 230 -460 59
-74 129 -168 155 -208 l47 -73 31 53 c17 29 62 94 101 143 219 278 266 353
289 463 22 108 9 173 -45 224 -57 53 -146 70 -223 43 -67 -23 -98 -52 -130
-117 -29 -61 -29 -61 -36 -30 -10 47 -60 109 -106 133 -54 27 -133 34 -183 15z"/>
<path d="M7286 9955 c-52 -20 -103 -60 -121 -95 -24 -46 -19 -123 11 -182 23
-45 23 -50 7 -43 -64 26 -76 27 -114 16 -144 -43 -188 -284 -70 -383 90 -77
267 -25 335 97 l17 30 -6 -45 c-3 -24 -14 -62 -24 -85 -25 -56 -112 -148 -188
-198 l-64 -42 145 -3 c80 -1 212 -1 292 0 l145 3 -64 42 c-118 78 -197 183
-211 283 l-6 45 17 -25 c108 -156 289 -186 373 -63 22 32 25 47 25 123 0 79
-3 91 -30 136 -22 35 -43 56 -78 73 -48 24 -75 23 -139 -4 -15 -6 -14 2 8 50
20 44 25 67 21 101 -14 124 -163 214 -281 169z"/>
<path d="M3671 9887 c-104 -154 -158 -214 -304 -334 -37 -31 -66 -59 -65 -63
2 -4 44 -41 93 -82 109 -91 153 -138 248 -266 39 -54 75 -100 78 -103 4 -2 41
43 83 99 100 134 142 179 251 270 50 41 91 78 93 82 1 4 -26 29 -60 56 -99 78
-207 192 -278 293 -36 51 -70 100 -76 109 -9 13 -20 3 -63 -61z"/>
<path d="M8556 9930 c-75 -129 -212 -282 -349 -390 -31 -25 -56 -47 -56 -50 0
-3 27 -25 60 -50 95 -71 200 -179 284 -294 43 -59 82 -105 86 -104 5 2 26 27
49 57 l40 55 0 337 0 338 -42 65 c-24 36 -45 65 -48 66 -3 0 -14 -14 -24 -30z"/>
<path d="M4921 9917 c-17 -51 -88 -126 -233 -245 -68 -56 -134 -117 -146 -136
-90 -134 -8 -285 156 -286 73 0 105 14 168 72 25 23 47 39 49 36 3 -2 -2 -29
-11 -59 -23 -77 -109 -159 -240 -227 l-99 -51 370 0 370 -1 -95 47 c-122 61
-229 162 -250 236 -7 26 -10 50 -7 54 4 3 29 -15 57 -41 60 -56 84 -66 159
-66 114 0 190 69 191 173 0 82 -45 143 -195 261 -125 99 -204 185 -222 241
l-10 30 -12 -38z"/>
<path d="M70 9927 c0 -8 -16 -36 -35 -63 l-35 -49 0 -249 c0 -236 1 -248 18
-234 9 8 23 19 31 23 23 13 6 -61 -24 -106 -22 -35 -25 -49 -25 -134 l0 -95
223 0 222 1 -95 49 c-52 27 -117 68 -143 91 -55 48 -107 131 -107 173 l0 29
46 -42 c25 -24 61 -49 79 -57 43 -18 136 -18 178 0 67 27 115 115 102 184 -13
70 -51 118 -188 231 -146 120 -186 161 -217 221 -21 42 -30 49 -30 27z"/>
<path d="M2235 8670 c-53 -8 -97 -32 -129 -70 -34 -41 -40 -67 -33 -155 9
-125 58 -215 241 -445 63 -80 130 -171 148 -202 18 -32 35 -57 38 -58 3 0 22
28 42 63 20 34 85 123 145 197 186 232 230 315 240 445 7 88 1 114 -33 155
-45 53 -96 73 -180 68 -93 -4 -146 -38 -184 -115 -14 -29 -27 -52 -30 -52 -3
0 -16 23 -30 52 -41 86 -133 132 -235 117z"/>
<path d="M3657 8666 c-26 -7 -64 -26 -85 -43 -77 -62 -92 -143 -43 -237 l30
-56 -29 15 c-37 19 -103 19 -140 0 -117 -61 -143 -277 -44 -365 76 -66 215
-49 301 38 19 19 38 44 43 56 7 18 9 16 9 -14 2 -83 -95 -212 -218 -290 l-54
-35 147 -3 c81 -1 210 -1 287 0 l140 3 -64 43 c-116 75 -207 199 -207 281 l0
34 28 -39 c55 -76 169 -131 244 -119 77 13 148 109 148 200 0 81 -52 180 -110
210 -37 19 -103 19 -140 0 l-30 -15 25 46 c54 101 16 220 -85 270 -61 31 -97
35 -153 20z"/>
<path d="M8520 8666 c-104 -27 -162 -90 -162 -175 0 -41 14 -84 50 -153 2 -4
-9 -1 -25 7 -15 8 -49 15 -76 15 -42 0 -53 -5 -92 -41 -55 -51 -79 -116 -73
-197 9 -114 60 -173 157 -180 100 -7 186 39 249 134 11 16 12 14 7 -21 -15
-98 -99 -207 -219 -286 l-61 -39 198 0 197 0 0 75 c0 68 -3 79 -30 117 -30 40
-60 122 -60 161 0 15 7 11 28 -19 65 -89 62 -102 62 259 l0 325 -27 10 c-50
19 -77 20 -123 8z"/>
<path d="M37 8615 l-37 -55 0 -361 0 -361 36 -50 c20 -27 40 -46 44 -41 4 4
32 42 62 83 97 133 155 197 258 282 55 46 100 85 99 88 0 3 -32 30 -70 60 -98
76 -216 204 -289 313 -34 51 -63 93 -65 95 -1 1 -18 -22 -38 -53z"/>
<path d="M4859 8563 c-77 -113 -181 -224 -287 -307 -34 -27 -62 -52 -62 -56 0
-4 32 -34 71 -65 111 -89 178 -161 269 -283 46 -62 86 -109 90 -105 4 4 32 42
62 83 97 133 155 197 258 282 55 46 100 85 99 88 0 3 -32 30 -70 60 -101 79
-218 205 -289 312 -34 51 -63 94 -65 96 -1 1 -35 -46 -76 -105z"/>
<path d="M7041 8659 c-86 -35 -127 -106 -117 -206 14 -137 61 -224 245 -453
88 -110 181 -245 181 -264 0 -6 17 18 37 52 21 35 92 132 159 217 182 230 226
311 240 446 14 138 -61 218 -204 219 -99 0 -181 -55 -213 -144 l-13 -35 -18
42 c-41 91 -112 137 -210 136 -35 0 -74 -5 -87 -10z"/>
<path d="M1272 8617 c-17 -49 -92 -126 -227 -235 -65 -54 -133 -117 -150 -141
-26 -37 -30 -51 -30 -110 0 -59 4 -72 29 -105 36 -48 85 -69 161 -69 69 0 99
13 168 73 44 39 47 40 47 18 -1 -82 -102 -191 -248 -267 l-97 -50 365 -1 364
0 -90 45 c-96 48 -188 122 -225 181 -22 36 -42 114 -30 114 4 0 23 -16 42 -36
59 -61 93 -77 168 -77 102 -1 169 46 191 135 24 96 -20 162 -210 315 -96 78
-163 147 -192 200 l-24 42 -12 -32z"/>
<path d="M6126 8617 c-20 -49 -99 -132 -216 -227 -175 -142 -216 -205 -191
-298 14 -55 37 -85 81 -110 89 -49 187 -35 265 39 29 27 54 49 57 49 11 0 -13
-85 -33 -117 -35 -56 -129 -131 -223 -178 l-90 -45 364 0 365 1 -76 37 c-136
68 -219 142 -254 226 -8 19 -15 45 -15 57 0 19 5 17 44 -19 76 -70 139 -90
221 -72 62 14 101 42 126 93 27 52 22 128 -11 181 -12 21 -87 91 -164 156
-145 120 -196 173 -220 231 l-14 33 -16 -37z"/>
<path d="M23 7373 l-23 -4 0 -326 0 -326 25 23 c14 13 25 29 25 37 0 7 4 13 9
13 15 0 -8 -90 -34 -138 -21 -38 -25 -57 -25 -133 l0 -89 185 0 c102 0 185 2
185 4 0 2 -20 16 -45 31 -67 39 -167 137 -198 193 -15 28 -30 72 -33 98 l-7
49 31 -41 c59 -80 136 -123 222 -124 57 0 100 26 137 81 24 37 28 52 28 118 0
55 -5 87 -19 114 -46 92 -125 133 -202 105 -39 -14 -61 -9 -34 7 5 3 17 30 25
60 22 75 8 125 -54 186 -59 59 -117 78 -198 62z"/>
<path d="M3429 7366 c-100 -36 -134 -91 -126 -205 9 -138 57 -226 255 -475 61
-76 124 -163 139 -192 15 -30 30 -54 33 -54 3 0 20 27 39 60 19 32 92 132 163
222 88 111 144 192 175 255 42 85 46 98 50 185 5 86 3 96 -19 128 -50 74 -162
107 -256 76 -58 -20 -126 -87 -137 -137 -8 -37 -21 -37 -28 1 -4 16 -25 50
-47 74 -63 69 -156 92 -241 62z"/>
<path d="M4875 7367 c-61 -24 -104 -58 -124 -101 -28 -58 -26 -103 8 -170 22
-44 25 -56 12 -51 -83 34 -125 30 -181 -21 -73 -66 -96 -191 -53 -286 25 -54
66 -84 129 -94 85 -12 196 42 246 120 l20 31 -5 -42 c-11 -93 -90 -196 -212
-278 l-60 -40 147 -3 c82 -1 214 -1 295 0 l147 3 -60 37 c-75 46 -165 136
-194 195 -13 25 -25 66 -27 92 l-5 46 19 -30 c53 -83 155 -140 238 -133 102 9
159 81 159 203 0 82 -22 134 -78 183 -54 47 -95 51 -179 17 -14 -6 -13 0 8 36
47 83 29 179 -46 243 -61 52 -138 68 -204 43z"/>
<path d="M8273 7364 c-56 -21 -110 -84 -118 -138 -8 -54 10 -157 39 -222 35
-77 82 -145 194 -286 57 -70 124 -161 151 -203 l48 -75 41 70 42 69 0 377 c0
375 0 377 -20 359 -11 -10 -30 -40 -42 -68 l-23 -49 -13 33 c-22 54 -60 97
-104 120 -54 28 -140 33 -195 13z"/>
<path d="M1245 7313 c-83 -127 -168 -224 -274 -314 -61 -52 -111 -96 -111 -99
1 -3 22 -21 48 -40 92 -69 207 -187 292 -301 l87 -117 77 104 c100 135 164
203 269 288 l86 69 -77 62 c-107 86 -226 216 -292 318 -30 47 -58 86 -61 86
-3 1 -23 -25 -44 -56z"/>
<path d="M6095 7274 c-78 -113 -165 -207 -277 -301 -43 -36 -78 -68 -78 -71 0
-4 34 -34 75 -66 98 -77 182 -167 275 -293 l73 -101 87 117 c86 114 201 233
292 301 26 19 48 38 48 41 0 3 -27 27 -60 53 -98 77 -211 196 -277 291 -34 50
-68 99 -76 109 -12 18 -18 12 -82 -80z"/>
<path d="M2506 7333 c-13 -50 -95 -139 -221 -239 -98 -77 -156 -136 -176 -179
-34 -74 -20 -153 37 -207 39 -36 74 -48 140 -48 64 0 114 22 163 74 19 20 39
36 43 36 14 0 8 -34 -16 -85 -32 -70 -127 -154 -235 -207 l-86 -43 183 -3
c100 -1 264 -1 364 0 l182 3 -86 43 c-106 52 -189 118 -224 178 -25 42 -48
114 -37 114 3 0 26 -18 50 -41 56 -51 98 -69 165 -69 97 1 166 49 188 131 26
95 -16 161 -186 301 -153 125 -174 147 -212 216 -29 53 -29 54 -36 25z"/>
<path d="M7352 7315 c-30 -63 -70 -104 -219 -226 -169 -140 -209 -204 -184
-297 23 -83 92 -131 189 -132 67 0 109 18 165 69 24 23 47 41 51 41 11 0 -5
-53 -33 -104 -33 -63 -117 -133 -223 -186 -45 -22 -84 -43 -87 -46 -2 -2 162
-4 365 -4 l369 1 -75 37 c-136 68 -218 137 -256 217 -24 51 -31 85 -16 85 4 0
25 -18 47 -40 52 -53 91 -70 162 -70 114 0 193 72 193 177 0 78 -43 135 -195
258 -107 87 -187 169 -209 217 l-23 47 -21 -44z"/>
<path d="M202 6059 c-49 -25 -98 -80 -107 -121 -10 -42 -21 -42 -33 0 -7 20
-23 51 -36 67 l-25 30 -1 -381 0 -381 37 -62 c20 -33 39 -61 42 -61 3 0 21 26
39 58 18 31 86 125 152 207 172 217 224 311 236 433 9 79 -1 124 -33 163 -58
68 -184 91 -271 48z"/>
<path d="M1184 6057 c-109 -52 -140 -153 -81 -265 l28 -53 -30 16 c-81 41
-170 4 -216 -90 -53 -108 -29 -236 55 -293 30 -20 44 -23 101 -20 83 4 152 38
196 97 l33 43 0 -30 c0 -78 -112 -221 -225 -288 -25 -14 -45 -28 -45 -30 0 -2
129 -4 287 -4 l286 0 -70 49 c-121 85 -203 202 -203 288 0 26 1 25 30 -14 62
-84 178 -135 257 -114 73 20 133 107 133 194 0 85 -50 181 -110 212 -37 19
-103 19 -139 1 l-28 -15 24 46 c30 61 31 134 0 188 -54 96 -178 132 -283 82z"/>
<path d="M2445 5988 c-60 -91 -196 -238 -309 -334 l-58 -49 62 -49 c114 -89
181 -159 272 -280 50 -67 94 -122 97 -123 3 -1 33 37 66 84 76 110 167 207
276 299 l87 71 -95 79 c-108 90 -200 191 -280 312 -30 45 -56 82 -56 82 -1 0
-29 -42 -62 -92z"/>
<path d="M4604 6061 c-86 -39 -118 -121 -95 -245 21 -113 70 -196 244 -416 57
-70 120 -158 142 -195 l39 -67 14 29 c28 56 82 130 196 273 75 94 131 177 161
235 118 234 57 406 -142 405 -99 -1 -167 -44 -208 -132 l-23 -50 -11 34 c-16
49 -69 108 -115 129 -54 25 -148 24 -202 0z"/>
<path d="M6062 6065 c-125 -55 -162 -159 -97 -274 14 -23 25 -45 25 -47 0 -3
-14 3 -32 12 -42 22 -115 14 -156 -16 -78 -58 -107 -206 -59 -300 32 -64 75
-90 152 -90 94 0 178 49 232 136 10 16 11 12 6 -21 -14 -95 -94 -202 -212
-281 l-66 -44 290 1 c228 0 286 3 271 12 -75 48 -154 118 -190 167 -42 57 -71
131 -64 166 2 14 8 10 28 -19 36 -53 115 -105 182 -119 52 -11 59 -10 104 13
136 70 139 296 5 386 -39 27 -95 30 -146 9 l-34 -14 20 31 c48 79 44 162 -12
230 -57 69 -167 97 -247 62z"/>
<path d="M7340 6042 c-114 -172 -228 -298 -353 -392 -25 -19 -47 -38 -47 -41
0 -3 45 -43 100 -88 102 -84 157 -143 256 -279 31 -42 60 -81 64 -85 4 -4 44
41 88 101 84 113 183 216 288 300 l62 48 -85 70 c-111 90 -196 183 -274 297
-34 50 -65 95 -68 99 -3 4 -17 -10 -31 -30z"/>
<path d="M3701 6023 c-18 -48 -83 -117 -201 -213 -166 -135 -210 -191 -210
-270 0 -48 32 -113 66 -137 42 -30 110 -46 163 -38 58 9 74 17 133 73 47 44
48 44 48 18 0 -83 -108 -198 -254 -271 l-90 -45 364 0 364 0 -90 45 c-146 73
-254 188 -254 271 0 26 1 26 48 -18 59 -56 75 -64 133 -73 53 -8 121 8 163 38
34 24 66 89 66 137 0 79 -44 135 -210 270 -118 96 -183 165 -201 213 -7 20
-16 37 -19 37 -3 0 -12 -17 -19 -37z"/>
<path d="M8565 6039 c-15 -49 -80 -121 -188 -210 -204 -167 -227 -197 -227
-292 0 -114 106 -193 228 -171 49 9 78 25 131 74 25 22 46 38 49 36 8 -9 -20
-86 -48 -128 -37 -56 -111 -113 -216 -166 l-79 -41 228 -1 227 0 0 83 c0 76
-3 86 -29 123 -26 35 -58 120 -49 130 2 2 19 -10 38 -26 l35 -30 3 246 2 246
-31 39 c-17 22 -39 56 -49 76 -17 36 -18 36 -25 12z"/>
<path d="M1015 4791 c-64 -16 -117 -56 -144 -108 -15 -29 -14 -127 3 -188 27
-103 82 -191 247 -396 52 -64 110 -144 129 -177 19 -34 37 -61 40 -61 3 0 24
30 47 67 23 37 92 130 153 207 178 224 230 328 230 460 0 76 -8 101 -46 139
-40 40 -88 58 -156 58 -101 0 -181 -56 -213 -149 l-13 -38 -11 28 c-6 16 -11
32 -11 36 0 19 -73 90 -107 104 -51 20 -111 27 -148 18z"/>
<path d="M2457 4789 c-84 -20 -151 -80 -163 -146 -8 -44 8 -114 36 -153 27
-37 25 -42 -7 -24 -43 22 -114 18 -154 -8 -84 -56 -119 -217 -68 -309 33 -59
68 -81 134 -87 91 -7 203 49 238 119 l17 34 0 -35 c0 -84 -109 -228 -224 -295
-25 -15 -46 -29 -46 -31 0 -2 131 -4 290 -4 l291 0 -78 53 c-121 82 -212 213
-201 289 3 21 5 20 26 -13 29 -47 114 -105 173 -118 118 -26 219 67 219 201 0
80 -53 174 -117 207 -31 16 -99 14 -133 -4 l-30 -15 26 47 c21 40 25 58 22
110 -3 51 -9 69 -35 100 -52 65 -143 100 -216 82z"/>
<path d="M5871 4789 c-127 -24 -179 -117 -148 -265 25 -119 66 -188 239 -406
59 -75 124 -162 144 -195 19 -32 37 -57 40 -56 3 1 29 37 58 80 28 43 99 137
156 210 58 72 120 155 138 185 60 100 93 232 78 312 -15 80 -100 139 -201 139
-98 0 -174 -51 -212 -142 l-19 -44 -13 42 c-29 99 -145 161 -260 140z"/>
<path d="M7303 4786 c-142 -46 -191 -152 -128 -278 22 -43 23 -49 8 -42 -10 4
-43 10 -74 12 -52 3 -59 1 -93 -29 -80 -70 -107 -190 -66 -287 33 -77 67 -97
160 -97 104 1 162 34 228 131 22 32 5 -61 -20 -109 -28 -56 -120 -150 -192
-198 l-61 -39 293 0 c160 0 292 2 292 4 0 2 -26 19 -58 39 -72 45 -167 143
-191 199 -24 54 -38 143 -19 114 81 -122 222 -181 316 -132 50 26 85 87 90
157 6 79 -3 118 -38 171 -40 60 -81 81 -145 76 -28 -3 -58 -8 -68 -13 -17 -7
-17 -5 2 26 11 18 23 52 27 75 20 135 -132 262 -263 220z"/>
<path d="M3685 4733 c-82 -125 -171 -228 -273 -315 -59 -50 -108 -94 -110 -98
-1 -4 41 -42 93 -85 102 -83 164 -151 265 -290 35 -47 66 -82 70 -78 4 4 33
44 65 88 91 125 160 200 261 282 52 42 94 79 94 83 0 3 -14 17 -32 30 -130 96
-256 231 -348 374 -24 36 -44 66 -45 66 -1 0 -19 -26 -40 -57z"/>
<path d="M8510 4692 c-73 -109 -196 -242 -294 -317 -36 -27 -65 -52 -66 -55 0
-3 34 -32 76 -65 98 -77 205 -191 285 -304 35 -50 66 -90 69 -90 3 0 24 27 48
60 l42 59 0 336 0 337 -42 68 c-24 37 -45 68 -48 68 -3 0 -34 -43 -70 -97z"/>
<path d="M70 4756 c0 -8 -16 -37 -35 -65 l-35 -51 0 -252 0 -252 30 29 30 29
0 -25 c0 -28 -33 -103 -49 -113 -7 -5 -11 -45 -11 -107 l0 -99 222 0 222 0
-90 45 c-94 47 -188 122 -223 178 -21 34 -44 117 -32 117 4 0 24 -18 46 -40
53 -54 96 -72 170 -72 186 0 257 189 121 325 -18 19 -76 68 -127 109 -114 92
-195 176 -215 223 -15 37 -24 45 -24 21z"/>
<path d="M4917 4735 c-23 -47 -93 -122 -192 -203 -147 -120 -194 -172 -211
-229 -40 -137 77 -251 229 -223 60 12 73 19 122 69 21 23 43 41 47 41 13 0 -3
-63 -28 -107 -36 -62 -127 -137 -228 -188 l-90 -45 369 0 370 1 -80 38 c-142
68 -233 151 -263 240 -22 62 -14 65 41 19 72 -62 92 -70 162 -70 75 0 126 22
162 69 46 60 42 164 -9 228 -12 15 -85 81 -164 146 -131 109 -192 174 -212
229 -7 19 -9 18 -25 -15z"/>
<path d="M2199 3496 c-91 -32 -129 -86 -129 -183 0 -140 51 -239 256 -496 58
-73 120 -158 137 -189 18 -32 34 -58 37 -58 3 1 20 27 39 60 19 33 84 122 144
198 138 174 160 205 204 297 30 64 36 89 40 163 5 106 -10 142 -82 187 -41 26
-58 30 -114 30 -103 -1 -181 -52 -212 -140 -16 -43 -25 -44 -34 -3 -11 48 -91
122 -147 136 -59 15 -93 15 -139 -2z"/>
<path d="M3660 3501 c-70 -23 -130 -72 -149 -124 -18 -47 -13 -91 18 -151 22
-44 25 -56 12 -51 -83 35 -141 25 -194 -34 -97 -107 -79 -292 33 -348 52 -27
88 -29 158 -8 55 17 113 60 145 110 l19 30 -5 -42 c-11 -95 -92 -199 -218
-281 l-64 -42 295 1 c281 0 294 1 270 17 -172 119 -251 222 -250 327 1 27 2
28 12 10 64 -117 231 -181 319 -122 103 69 115 245 23 347 -54 60 -111 70
-197 35 -14 -6 -13 0 8 36 71 125 -16 278 -167 294 -24 2 -54 1 -68 -4z"/>
<path d="M7056 3498 c-58 -16 -123 -84 -131 -140 -14 -91 30 -234 106 -345 18
-27 78 -104 133 -173 86 -108 136 -179 182 -256 9 -16 14 -11 43 40 18 32 86
124 150 204 173 219 222 304 242 421 17 97 5 148 -46 197 -107 103 -281 74
-350 -59 l-30 -56 -23 50 c-49 102 -158 148 -276 117z"/>
<path d="M8498 3495 c-62 -20 -123 -78 -137 -130 -12 -46 -4 -91 28 -154 15
-28 18 -41 9 -38 -67 28 -88 30 -133 13 -135 -52 -170 -283 -56 -378 90 -77
267 -25 335 97 l17 30 -6 -45 c-12 -95 -91 -201 -202 -276 -32 -21 -62 -42
-67 -46 -6 -4 79 -8 187 -8 l197 0 0 75 c0 69 -3 79 -34 125 -33 48 -62 137
-54 162 3 8 11 0 20 -17 9 -16 28 -41 42 -54 l26 -24 0 327 0 326 -27 11 c-46
18 -96 19 -145 4z"/>
<path d="M36 3449 l-36 -54 0 -363 0 -363 37 -49 36 -49 92 122 c92 121 183
216 283 292 29 21 52 42 52 46 0 3 -28 28 -62 55 -104 81 -219 203 -287 304
-35 52 -67 99 -72 104 -4 4 -23 -16 -43 -45z"/>
<path d="M4853 3388 c-80 -112 -175 -213 -285 -304 -32 -25 -58 -49 -58 -53 0
-4 43 -41 94 -84 102 -83 176 -164 270 -294 l58 -82 88 117 c87 117 189 222
288 297 28 21 52 42 52 46 0 4 -26 26 -57 50 -95 71 -224 208 -292 309 -35 52
-67 99 -71 103 -4 4 -43 -43 -87 -105z"/>
<path d="M1276 3464 c-12 -48 -74 -119 -180 -206 -205 -168 -236 -207 -236
-298 0 -99 79 -170 191 -170 76 0 105 12 161 67 26 26 51 44 54 40 4 -3 1 -28
-6 -54 -21 -75 -128 -176 -250 -236 l-94 -47 369 0 370 1 -100 52 c-128 66
-216 150 -239 228 -9 29 -14 55 -11 57 2 3 25 -14 50 -37 58 -54 100 -71 170
-71 150 0 235 133 168 263 -19 38 -70 87 -183 179 -123 99 -176 154 -204 213
l-23 47 -7 -28z"/>
<path d="M6127 3447 c-20 -46 -118 -145 -255 -256 -122 -99 -156 -149 -156
-226 0 -61 22 -105 71 -142 30 -23 48 -28 109 -31 64 -4 79 -1 116 21 24 14
56 39 72 56 17 17 33 31 37 31 15 0 -13 -84 -41 -126 -42 -59 -106 -110 -213
-166 l-92 -47 370 -1 370 0 -95 46 c-122 60 -229 161 -250 237 -7 26 -10 50
-7 53 3 3 28 -14 54 -39 59 -56 87 -67 162 -67 142 0 228 122 175 248 -20 49
-45 74 -194 197 -120 100 -189 174 -208 226 -9 24 -10 23 -25 -14z"/>
<path d="M13 2203 c-10 -4 -13 -79 -13 -331 l1 -327 22 26 c12 14 27 35 34 45
25 40 2 -61 -28 -120 -25 -51 -29 -70 -29 -142 l0 -84 182 0 c100 0 178 4 172
8 -5 4 -35 25 -67 47 -112 74 -204 208 -195 284 3 24 4 23 29 -15 43 -65 142
-123 214 -124 17 0 51 10 75 23 64 32 103 108 98 192 -5 74 -38 146 -84 182
-44 33 -110 41 -155 19 -17 -9 -33 -16 -35 -16 -1 0 9 20 23 46 54 97 24 202
-77 262 -43 25 -65 32 -105 31 -27 0 -56 -3 -62 -6z"/>
<path d="M1225 2117 c-59 -90 -208 -250 -313 -338 l-54 -44 105 -87 c100 -84
164 -154 271 -301 28 -37 52 -67 55 -66 3 0 35 41 71 91 81 114 173 213 270
292 42 34 78 64 80 67 3 3 -36 40 -87 83 -115 96 -186 174 -265 291 -33 49
-64 93 -67 97 -3 3 -33 -35 -66 -85z"/>
<path d="M3420 2199 c-39 -16 -89 -58 -105 -89 -17 -33 -19 -124 -4 -190 17
-78 76 -182 169 -300 147 -187 195 -252 225 -303 l28 -49 30 55 c16 31 79 118
139 194 170 213 218 290 244 388 18 65 18 169 0 203 -82 157 -340 128 -400
-45 l-12 -36 -28 57 c-42 87 -109 127 -210 125 -28 0 -62 -5 -76 -10z"/>
<path d="M4842 2184 c-29 -14 -65 -42 -80 -62 -39 -51 -38 -137 1 -204 l27
-47 -35 14 c-76 32 -147 9 -194 -62 -66 -99 -62 -221 10 -297 36 -39 39 -41
111 -44 65 -3 79 -1 128 25 32 17 68 47 87 72 33 42 33 42 33 14 0 -77 -99
-208 -214 -283 l-61 -40 290 0 290 0 -65 44 c-121 81 -210 202 -210 285 l0 34
30 -42 c48 -66 148 -121 219 -121 48 0 110 39 139 88 55 94 28 246 -54 309
-42 32 -107 40 -155 20 l-35 -14 23 45 c33 64 31 137 -3 188 -68 100 -177 130
-282 78z"/>
<path d="M6097 2111 c-81 -120 -167 -213 -279 -305 l-85 -69 31 -27 c17 -14
45 -36 61 -49 66 -49 172 -162 252 -268 46 -62 86 -113 88 -113 2 0 20 24 41
53 96 134 182 230 280 312 l106 90 -54 44 c-110 92 -246 238 -307 331 -35 52
-64 96 -65 97 -2 2 -33 -42 -69 -96z"/>
<path d="M8252 2184 c-73 -36 -97 -79 -96 -169 2 -142 52 -239 250 -486 60
-75 125 -164 145 -198 l36 -61 42 70 41 69 0 378 -1 378 -29 -34 c-16 -19 -35
-50 -41 -69 l-11 -34 -23 49 c-58 123 -190 168 -313 107z"/>
<path d="M2502 2156 c-18 -49 -89 -124 -206 -219 -170 -138 -206 -185 -206
-269 0 -126 124 -206 262 -168 21 6 62 33 93 61 51 47 55 49 55 27 0 -44 -50
-127 -107 -177 -31 -28 -95 -69 -144 -93 -48 -24 -88 -45 -88 -48 -1 -3 160
-4 356 -2 l358 3 -69 35 c-163 83 -248 168 -266 267 -4 20 -6 37 -4 37 2 0 28
-22 58 -49 30 -28 72 -54 93 -60 202 -56 339 143 206 299 -19 22 -81 78 -137
123 -128 103 -191 167 -219 223 l-23 45 -12 -35z"/>
<path d="M7361 2162 c-29 -63 -74 -112 -208 -223 -158 -132 -186 -164 -203
-230 -45 -181 184 -291 333 -161 83 72 78 69 71 31 -9 -47 -36 -98 -76 -140
-39 -42 -151 -116 -223 -147 l-50 -21 363 -1 363 0 -89 46 c-49 25 -114 68
-145 95 -57 50 -107 133 -107 177 0 22 4 20 55 -27 55 -50 102 -71 160 -71 83
0 164 51 186 117 17 53 7 126 -26 172 -15 22 -84 87 -154 144 -143 118 -195
172 -220 228 l-18 39 -12 -28z"/>
<path d="M255 911 c-75 -19 -150 -85 -162 -142 -3 -16 -8 -29 -12 -29 -3 0
-14 20 -24 44 -10 24 -27 52 -38 62 -19 17 -19 13 -19 -363 l0 -381 33 -51
c17 -28 39 -51 47 -51 8 0 27 21 42 48 15 26 74 106 132 179 115 145 172 225
205 290 47 95 65 236 37 291 -40 76 -154 125 -241 103z"/>
<path d="M1212 901 c-88 -31 -142 -97 -142 -174 0 -19 13 -61 30 -93 34 -67
35 -70 18 -56 -25 20 -87 31 -123 21 -114 -32 -175 -203 -114 -325 36 -72 66
-89 152 -89 60 0 80 5 125 29 48 27 91 70 105 106 3 8 6 -1 6 -20 1 -75 -70
-181 -172 -256 l-59 -44 247 0 247 0 -62 46 c-101 77 -170 186 -170 268 1 28
2 29 12 11 21 -39 84 -97 130 -121 55 -28 133 -32 177 -9 133 68 134 293 2
382 -39 27 -111 31 -152 9 l-27 -14 25 48 c40 78 32 154 -22 219 -58 68 -148
93 -233 62z"/>
<path d="M4655 911 c-130 -33 -176 -121 -144 -273 24 -112 75 -197 230 -390
51 -62 112 -143 136 -181 24 -37 50 -67 57 -67 7 0 30 28 52 63 22 34 85 118
140 187 170 212 216 295 233 415 17 120 -9 182 -93 224 -126 63 -274 5 -319
-125 l-14 -39 -13 39 c-33 102 -162 173 -265 147z"/>
<path d="M6082 906 c-135 -44 -185 -164 -117 -285 31 -53 31 -55 0 -35 -13 9
-44 16 -69 16 -64 1 -116 -35 -151 -106 -24 -49 -27 -65 -23 -129 4 -88 34
-144 94 -172 79 -37 225 6 282 85 41 55 43 56 36 20 -16 -94 -92 -199 -199
-277 l-30 -22 244 -1 244 0 -43 31 c-106 77 -175 176 -186 267 l-6 47 19 -30
c81 -124 253 -176 334 -99 95 88 90 255 -10 349 -29 27 -39 30 -94 30 -34 0
-70 -4 -80 -9 -17 -8 -17 -5 3 35 28 55 31 136 5 176 -62 98 -159 139 -253
109z"/>
<path d="M2435 807 c-83 -121 -164 -209 -274 -297 -44 -36 -80 -67 -81 -70 0
-3 34 -32 75 -64 97 -76 194 -178 273 -288 37 -52 70 -88 80 -88 10 0 47 42
87 96 84 115 165 200 269 282 l76 61 -52 42 c-130 102 -252 234 -328 357 -25
39 -47 71 -50 71 -3 0 -36 -46 -75 -102z"/>
<path d="M7294 808 c-93 -134 -137 -183 -253 -280 -53 -44 -97 -84 -99 -88 -1
-3 35 -36 80 -72 102 -81 163 -145 257 -271 41 -53 81 -97 90 -97 9 0 26 15
37 33 65 100 190 241 283 317 55 47 101 87 101 91 0 3 -28 28 -62 55 -97 76
-207 191 -275 290 -34 49 -68 97 -75 107 -12 17 -20 8 -84 -85z"/>
<path d="M3702 858 c-19 -52 -84 -121 -218 -230 -145 -117 -183 -166 -191
-241 -10 -111 68 -187 194 -187 74 0 106 14 169 72 42 39 44 40 44 16 0 -42
-50 -127 -101 -171 -26 -23 -79 -59 -116 -79 l-68 -38 305 0 305 0 -68 38
c-37 20 -90 56 -116 79 -51 44 -101 129 -101 171 0 24 2 23 44 -16 63 -58 95
-72 169 -72 126 0 204 76 194 187 -8 75 -46 124 -191 241 -134 109 -199 178
-218 230 -7 17 -15 32 -18 32 -3 0 -11 -15 -18 -32z"/>
<path d="M8556 851 c-21 -46 -98 -124 -240 -243 -139 -116 -159 -143 -164
-222 -5 -75 11 -112 64 -152 27 -21 50 -29 95 -32 93 -7 126 4 184 59 28 27
55 49 59 49 11 0 -4 -59 -25 -101 -24 -48 -115 -130 -192 -174 l-62 -35 198 0
197 0 0 74 c0 55 -4 77 -16 87 -31 25 -79 149 -58 149 5 0 23 -14 41 -32 l33
-32 0 252 0 251 -29 33 c-15 18 -37 50 -48 71 l-19 39 -18 -41z"/>
</g>
</svg>
