<?xml version="1.0" standalone="no"?>
<!DOCTYPE svg PUBLIC "-//W3C//DTD SVG 20010904//EN"
 "http://www.w3.org/TR/2001/REC-SVG-20010904/DTD/svg10.dtd">
<svg version="1.0" xmlns="http://www.w3.org/2000/svg"
 width="600pt" height="340.000000pt" viewBox="-5 -5 800 400"
 preserveAspectRatio="xMidYMid meet">
<metadata>
Created by potrace 1.16, written by Peter Selinger 2001-2019
</metadata>
<g transform="translate(0.000000,340.000000) scale(0.100000,-0.100000)"
fill="#11e092" stroke="none">
<path d="M1460 3114 c-14 -2 -58 -9 -99 -15 -40 -6 -96 -19 -125 -28 -28 -10
-55 -18 -59 -19 -10 0 -60 -19 -114 -43 -24 -11 -47 -19 -52 -19 -5 0 -16 -6
-23 -12 -7 -7 -31 -22 -53 -33 -22 -10 -56 -32 -76 -47 -20 -15 -41 -28 -47
-28 -6 0 -12 -3 -14 -7 -1 -5 -23 -24 -48 -44 -158 -128 -282 -285 -369 -464
-42 -85 -95 -235 -107 -301 -3 -21 -9 -48 -11 -59 -3 -11 -7 -115 -10 -231 -6
-243 9 -397 48 -489 4 -11 16 -48 25 -82 9 -35 20 -63 24 -63 4 0 15 -21 25
-47 18 -47 73 -153 85 -163 3 -3 17 -21 30 -40 13 -19 29 -40 35 -46 5 -6 28
-33 50 -59 49 -58 136 -143 190 -184 22 -17 45 -34 50 -39 13 -10 152 -93 190
-114 96 -51 292 -110 425 -127 133 -17 3047 -14 3160 4 225 35 442 120 585
230 11 8 47 36 80 61 65 50 160 146 215 219 19 25 40 52 46 59 32 35 125 212
153 291 71 198 83 265 86 495 3 178 -2 262 -19 345 -4 17 -9 44 -12 60 -11 57
-55 180 -95 263 -21 46 -39 87 -39 93 0 5 -4 9 -9 9 -5 0 -12 9 -16 20 -6 18
-39 65 -107 155 -30 38 -176 183 -214 212 -190 144 -349 218 -594 274 -43 10
-398 13 -1610 15 -855 1 -1566 0 -1580 -2z m3130 -39 c425 -62 805 -337 995
-720 98 -198 134 -346 141 -580 9 -305 -44 -545 -168 -761 -197 -344 -500
-565 -896 -656 l-97 -22 -1490 -4 c-1031 -2 -1523 0 -1597 8 -325 33 -608 170
-831 404 -182 190 -307 435 -352 690 -20 119 -21 432 0 550 47 271 174 515
369 711 221 221 497 355 806 388 19 2 708 4 1530 5 1219 0 1513 -2 1590 -13z"/>
<path d="M2437 3003 c-2 -4 -3 -89 -3 -188 2 -171 3 -180 21 -183 18 -2 20 3
19 45 -1 26 -2 51 -4 56 -7 20 -5 33 7 48 12 14 12 19 -2 33 -9 9 -12 16 -7
16 5 0 12 9 15 20 3 11 2 20 -2 20 -10 0 -7 64 4 73 7 4 6 10 -1 15 -7 4 -13
16 -15 26 -4 20 -24 33 -32 19z"/>
<path d="M2607 3003 c-4 -3 -7 -89 -7 -190 l0 -184 23 3 c16 2 21 9 19 26 -2
12 2 22 9 22 7 0 6 8 -5 25 -18 28 -21 61 -6 70 12 8 9 37 -5 47 -6 4 -2 8 8
8 10 0 17 8 17 20 0 12 -7 20 -17 20 -14 0 -15 2 -5 9 8 5 11 17 7 33 -5 19
-2 29 12 38 16 10 16 11 0 6 -13 -4 -19 1 -24 24 -5 30 -13 36 -26 23z"/>
<path d="M2777 3004 c-4 -4 -7 -90 -7 -191 l0 -184 23 3 c15 2 21 9 19 21 -2
10 2 24 8 32 8 9 7 14 -3 18 -14 5 -15 49 -2 80 4 10 2 23 -4 31 -9 10 -9 16
-1 21 7 4 9 25 6 55 -4 31 -2 52 6 56 8 5 7 10 -3 18 -8 6 -14 17 -14 25 0 16
-18 25 -28 15z"/>
<path d="M3277 3003 c-4 -3 -7 -89 -7 -190 0 -171 1 -183 18 -183 26 0 33 10
21 31 -8 15 -6 19 7 19 15 0 15 2 0 25 -20 31 -21 64 -1 71 12 5 13 10 4 20
-6 8 -8 14 -3 14 5 0 2 5 -6 10 -13 8 -12 10 3 10 9 0 17 7 17 15 0 7 -8 19
-17 24 -12 7 -13 10 -4 11 9 0 11 8 7 26 -4 15 -2 32 5 40 9 11 8 15 -5 20 -9
3 -16 15 -16 25 0 19 -11 25 -23 12z"/>
<path d="M3447 3004 c-4 -4 -7 -90 -7 -191 l0 -184 22 3 c19 3 22 8 20 38 -2
19 -4 49 -6 65 -1 17 2 36 8 43 7 9 6 20 -2 32 -7 12 -8 21 -2 25 5 3 8 28 5
55 -3 30 0 52 6 56 8 4 7 9 -2 15 -8 4 -14 16 -14 25 0 19 -17 29 -28 18z"/>
<path d="M1420 2945 c-258 -41 -485 -160 -672 -353 -142 -146 -227 -286 -286
-472 -46 -143 -55 -231 -49 -462 5 -216 15 -272 72 -423 125 -332 410 -603
754 -714 177 -58 106 -56 1771 -56 1461 0 1539 1 1620 19 488 107 843 462 947
948 14 64 18 129 18 278 0 205 -10 281 -56 421 -115 353 -406 647 -753 764
-161 54 -188 57 -571 62 -340 5 -362 4 -382 -14 -12 -10 -60 -92 -108 -183
-48 -91 -92 -171 -98 -178 -7 -9 -141 -12 -630 -10 l-620 3 -19 35 c-10 19
-51 96 -90 170 -39 74 -80 145 -91 158 -20 22 -21 22 -346 21 -218 -1 -354 -5
-411 -14z"/>
</g>
</svg>
